{"title":"Ghanchakkar 2013 Hindi DVDRip XviD ESubs-Team Telly ","uid":8813201,"size":756941757,"categoryP":"video","categoryS":"movies","magnet":"?xt=urn:btih:8a2703dd943537f5325a796689e0f191e2f9365a&amp;dn=Ghanchakkar+2013+Hindi+DVDRip+XviD+ESubs-Team+Telly+&amp;tr=udp%3A%2F%2Ftracker.openbittorrent.com%3A80&amp;tr=udp%3A%2F%2Fopen.demonii.com%3A1337&amp;tr=udp%3A%2F%2Ftracker.coppersurfer.tk%3A6969&amp;tr=udp%3A%2F%2Fexodus.desync.com%3A6969","seeders":2,"leechers":0,"uploader":"HeroMaster","files":-1,"time":1376510837,"description":":::::: TEAM TELLY AND DEEP1007 PRESENTS :::::::\n\n &lt;a href=&quot;\nhttp://i.imgur.com/wUMp3RR.png&quot; rel=&quot;nofollow&quot; target=&quot;_NEW&quot;&gt;\nhttp://i.imgur.com/wUMp3RR.png&lt;/a&gt;\n\n\n:::: Ghanchakkar 2013 Hindi DVDRip XviD ESubs-Team Telly ::::\n\n\n::Information::\n\n\nGhanchakkar *2013*\n&quot;DVDRip - 1CD - XviD - E-Sub&quot;\n: Team Telly ::..\n:: eXclusive - deep1007 ::..\n\n\nGeneral\nComplete name                            : Ghanchakkar [2013].avi\nFormat                                   : AVI\nFormat/Info                              : Audio Video Interleave\nFile size                                : 716 MiB\nDuration                                 : 2h 15mn\nOverall bit rate                         : 741 Kbps\n\nVideo\nID                                       : 0\nFormat                                   : MPEG-4 Visual\nFormat profile                           : Simple@L3\nFormat settings, BVOP                    : No\nFormat settings, QPel                    : No\nFormat settings, GMC                     : No warppoints\nFormat settings, Matrix                  : Default (H.263)\nCodec ID                                 : XVID\nCodec ID/Hint                            : XviD\nDuration                                 : 2h 15mn\nBit rate                                 : 627 Kbps\nWidth                                    : 640 pixels\nHeight                                   : 272 pixels\nDisplay aspect ratio                     : 2.35:1\nFrame rate                               : 29.970 fps\nOriginal frame rate                      : 29.000 fps\nColor space                              : YUV\nChroma subsampling                       : 4:2:0\nBit depth                                : 8 bits\nScan type                                : Progressive\nCompression mode                         : Lossy\nBits/(Pixel*Frame)                       : 0.120\nStream size                              : 606 MiB (85%)\nWriting library                          : XviD 1.2.1 (UTC 2008-12-04)\n\nAudio\nID                                       : 1\nFormat                                   : MPEG Audio\nFormat version                           : Version 1\nFormat profile                           : Layer 3\nMode                                     : Joint stereo\nMode extension                           : MS Stereo\nCodec ID                                 : 55\nCodec ID/Hint                            : MP3\nDuration                                 : 2h 15mn\nBit rate mode                            : Constant\nBit rate                                 : 96.0 Kbps\nChannel(s)                               : 2 channels\nSampling rate                            : 44.1 KHz\nCompression mode                         : Lossy\nStream size                              : 92.8 MiB (13%)\nAlignment                                : Aligned on interleaves\nInterleave, duration                     : 26 ms (0.78 video frame)\nWriting library                          : LAME3.98\n\n\n::IMDB::\n\n &lt;a href=&quot;\nhttp://www.imdb.com/title/tt2246724/&quot; rel=&quot;nofollow&quot; target=&quot;_NEW&quot;&gt;\nhttp://www.imdb.com/title/tt2246724/&lt;/a&gt;\n\n\n::Greetz and Respect::\n\n\nAll Credits Goes To Team TellyTv and deep1007 \n\n\n::Poster::\n\n &lt;a href=&quot;\nhttp://i.imgur.com/tDqhTMD.jpg&quot; rel=&quot;nofollow&quot; target=&quot;_NEW&quot;&gt;\nhttp://i.imgur.com/tDqhTMD.jpg&lt;/a&gt;\n\n\n::Screenshots::\n\n &lt;a href=&quot;\nhttp://i.imgur.com/ZoIOn3t.png&quot; rel=&quot;nofollow&quot; target=&quot;_NEW&quot;&gt;\nhttp://i.imgur.com/ZoIOn3t.png&lt;/a&gt;\n\n &lt;a href=&quot;\nhttp://i.imgur.com/JLs4HU9.png&quot; rel=&quot;nofollow&quot; target=&quot;_NEW&quot;&gt;\nhttp://i.imgur.com/JLs4HU9.png&lt;/a&gt;\n\n &lt;a href=&quot;\nhttp://i.imgur.com/Aqlr8eI.png&quot; rel=&quot;nofollow&quot; target=&quot;_NEW&quot;&gt;\nhttp://i.imgur.com/Aqlr8eI.png&lt;/a&gt;\n\n\nSEED AND ENJOY!","torrent":{"xt":"urn:btih:8a2703dd943537f5325a796689e0f191e2f9365a","amp;dn":"Ghanchakkar+2013+Hindi+DVDRip+XviD+ESubs-Team+Telly+","amp;tr":["udp%3A%2F%2Ftracker.openbittorrent.com%3A80","udp%3A%2F%2Fopen.demonii.com%3A1337","udp%3A%2F%2Ftracker.coppersurfer.tk%3A6969","udp%3A%2F%2Fexodus.desync.com%3A6969"],"infoHash":"8a2703dd943537f5325a796689e0f191e2f9365a","infoHashBuffer":{"type":"Buffer","data":[138,39,3,221,148,53,55,245,50,90,121,102,137,224,241,145,226,249,54,90]},"announce":[],"urlList":[]}}